<?xml version="1.0" encoding="utf-8"?>
<!-- Generator: Adobe Illustrator 19.0.0, SVG Export Plug-In . SVG Version: 6.00 Build 0)  -->
<svg version="1.1" id="Layer_1" xmlns="http://www.w3.org/2000/svg" xmlns:xlink="http://www.w3.org/1999/xlink" x="0px" y="0px"
	 viewBox="-212 196 175 60" style="enable-background:new -212 196 175 60;" xml:space="preserve">
<style type="text/css">
	.st0{fill:#292B2C;}
	.st1{fill:#FFFFFF;}
	.st2{fill:none;}
	.st3{font-family:'Ubuntu-Light';}
	.st4{font-size:28px;}
	.st5{font-family:'Ubuntu-Bold';}
	.st6{font-size:13px;}
</style>
<g id="Background">
	<g>
		<ellipse class="st0" cx="-181.7" cy="226" rx="30.3" ry="30"/>
	</g>
</g>
<g id="Logo">
	<path class="st1" d="M-156.6,221.4c-0.3,0.2-0.5,0.3-0.8,0.4c-1.9,1-3.8,2-5.7,3c-0.4,0.2-0.8,0.2-1.2,0c-2.6-1.6-5.2-3.2-7.9-4.7
		c-6.5-3.9-13.1-7.7-19.6-11.6c-0.1,0-0.1-0.1-0.2-0.1c-0.3-0.2-0.4-0.4-0.2-0.7c0.6-1,1.3-2,1.9-3c0.1-0.2,0.3-0.3,0.6-0.4
		c0.7-0.1,1.4-0.2,2.1-0.2c0.3,0,0.6,0.1,0.8,0.2c3.3,1.8,6.5,3.7,9.8,5.5c6.7,3.8,13.3,7.6,20,11.3
		C-156.8,221.3-156.7,221.3-156.6,221.4z"/>
	<path class="st1" d="M-168,223.3c-0.1,0.2-0.1,0.3-0.1,0.4c-0.7,1.6-1.3,3.3-2,4.9c-0.1,0.2-0.1,0.3-0.4,0.1c-3-2.2-6-4.4-8.9-6.6
		c-4.6-3.3-9.2-6.6-13.7-10c-0.4-0.3-0.5-0.4-0.3-0.9c0.3-0.7,0.5-1.3,0.8-2c0.2-0.6,0.2-0.6,0.7-0.3c3.6,2.2,7.2,4.3,10.9,6.5
		c4.2,2.5,8.4,5,12.7,7.5C-168.3,223-168.1,223.1-168,223.3z"/>
	<path class="st1" d="M-202.8,226.5c0-0.6,0-1.2,0-1.8c0-0.2,0.1-0.4,0.3-0.4c1.3-0.4,2.6-0.5,4-0.7c2.8-0.5,5.6-0.9,8.4-1.4
		c1.6-0.3,3.1-0.5,4.7-0.4c0.2,0,0.3,0.1,0.3,0.3c0,0.3,0,0.6,0.1,0.9c0,0.2,0,0.2-0.2,0.3c-4.6,1.9-9.2,3.8-13.8,5.8
		c-0.2,0.1-0.5,0.1-0.7,0.1c-0.9-0.1-1.8-0.2-2.7-0.3c-0.4,0-0.4-0.1-0.4-0.5C-202.8,227.7-202.8,227.1-202.8,226.5
		C-202.8,226.5-202.8,226.5-202.8,226.5z"/>
	<path class="st1" d="M-181.9,221.2c-0.5,0-0.9,0.1-1.3,0.1c-1.6,0.1-3.2,0.1-4.8,0.2c-0.5,0-1-0.1-1.4-0.5c-0.3-0.3-0.6-0.6-1-0.9
		c-0.1-0.1-0.1-0.2-0.1-0.3c0.1-1.6,0.1-3.2,0.2-4.8c0,0,0,0,0-0.1C-187.4,217-184.7,219.1-181.9,221.2z"/>
	<path class="st1" d="M-205.2,226c0-1.7,0-3.3,0-5c0-0.5,0-0.5,0.5-0.4c0.2,0,0.5,0.1,0.7,0.1c0.5,0.1,0.7,0.3,0.7,0.8
		c0,0.3,0,0.6,0,1c0,2.9,0,5.9,0,8.8c0,0.1,0,0.2,0,0.2c0,0.3-0.1,0.4-0.5,0.4c-0.3,0-0.6-0.1-0.9-0.1c-0.3,0-0.4-0.2-0.4-0.5
		c0-0.1,0-0.3,0-0.4C-205.2,229.3-205.2,227.7-205.2,226z"/>
	<path class="st1" d="M-169.6,228.8c0-0.1,0.1-0.3,0.2-0.5c0.6-1.2,1.3-2.4,1.9-3.7c0.2-0.3,0.3-0.4,0.6-0.2
		c0.6,0.3,1.1,0.6,1.7,0.9c0.2,0.1,0.2,0.2,0.1,0.3c-0.8,1.4-1.6,2.7-2.3,4.1c-0.2,0.3-0.3,0.3-0.6,0.2c-0.4-0.2-0.8-0.3-1.1-0.5
		C-169.5,229.3-169.6,229.1-169.6,228.8z"/>
</g>
<rect x="-137.8" y="213.4" class="st2" width="93.8" height="23.7"/>
<text transform="matrix(1 0 0 1 -137.7502 235.1331)" class="st3 st4">INSTAR</text>
<rect x="-196.3" y="235.5" class="st2" width="29.2" height="13.3"/>
<text transform="matrix(1 0 0 1 -196.25 245.5879)" class="st1 st5 st6">Wiki</text>
</svg>
