<svg id="Layer_1" xmlns="http://www.w3.org/2000/svg" viewBox="-441 443 16 15"><style>.st0{display:none}.st1{display:inline}.st2{fill:#9b9b9b}.st3{fill:#545454}</style><title>Page 1</title><g id="Page-1_1_" class="st0"><g id="AMP---3" transform="translate(-161 -1403)" class="st1"><g id="blogGroup-9" transform="translate(138 1312)"><g id="Blog-Post" transform="translate(0 58)"><path id="Page-1" class="st2" d="M-418 478h16v-2h-16v2zm0 4h16v-2h-16v2zm0 4h16v-2h-16v2zm0 4h10v-2h-10v2z"/></g></g></g></g><g id="XMLID_2_"><path class="st3" d="M-439.3 449.4c-.1 0-.2-.2-.1-.2l.1-.1.9-.9h.2l.9.9.1.1c.1.1 0 .2-.1.2h-2zm-.1 2.5c-.1-.1 0-.2.1-.2h2c.1 0 .2.2.1.2l-.1.1-.9.9h-.2l-.9-.9-.1-.1z"/><path class="st3" d="M-440.1 450.8c.1-.1.1-.1.2-.1h3.3c.1 0 .2 0 .2.1l.7.8c.1.2 0 .5-.2.5h-.8v-.4c-.1-.2-.3-.3-.5-.3h-2c-.2 0-.4.1-.5.3-.1.1-.1.3 0 .4h-.8c-.3 0-.4-.3-.2-.5l.6-.8zm.2-.4c-.1 0-.2 0-.2-.1l-.7-.8c-.1-.2 0-.5.2-.5h.8c-.1.1-.1.3 0 .4.1.2.3.3.5.3h2c.2 0 .4-.1.5-.3.1-.1.1-.3 0-.4h.8c.2 0 .4.3.2.5l-.7.8c0 .1-.1.1-.2.1h-3.2z"/></g></svg>